<?xml version="1.0" encoding="UTF-8" standalone="no"?>
<svg width="270px" height="270px" viewBox="0 0 270 270" version="1.1" xmlns="http://www.w3.org/2000/svg" xmlns:xlink="http://www.w3.org/1999/xlink" xmlns:sketch="http://www.bohemiancoding.com/sketch/ns">
    <!-- Generator: Sketch 3.3.3 (12072) - http://www.bohemiancoding.com/sketch -->
    <title>Logo Copy</title>
    <desc>Created with Sketch.</desc>
    <defs>
        <linearGradient x1="0%" y1="0%" x2="101.999998%" y2="100.999999%" id="linearGradient-1">
            <stop stop-color="#FFCF55" offset="0%"></stop>
            <stop stop-color="#4CF2FF" offset="100%"></stop>
        </linearGradient>
    </defs>
    <g id="Website" stroke="none" stroke-width="1" fill="none" fill-rule="evenodd" sketch:type="MSPage">
        <g id="Docs-Copy-3" sketch:type="MSArtboardGroup" transform="translate(-671.000000, -54.000000)" fill="url(#linearGradient-1)">
            <g id="Intro" sketch:type="MSLayerGroup" transform="translate(-4.000000, -238.000000)">
                <g id="Lockup" transform="translate(309.000000, 292.000000)" sketch:type="MSShapeGroup">
                    <path d="M500.835479,269.218925 C575.303058,269.218925 635.670958,208.952216 635.670958,134.609462 C635.670958,60.2667091 575.303058,0 500.835479,0 C426.3679,0 366,60.2667091 366,134.609462 C366,208.952216 426.3679,269.218925 500.835479,269.218925 Z M500.835479,257.478798 C568.808278,257.478798 623.911119,202.468323 623.911119,134.609462 C623.911119,66.750602 568.808278,11.7401266 500.835479,11.7401266 C432.86268,11.7401266 377.759839,66.750602 377.759839,134.609462 C377.759839,202.468323 432.86268,257.478798 500.835479,257.478798 Z M549.357572,194.171827 C550.730555,195.544811 552.959172,195.54224 554.325417,194.175994 L594.041384,154.460028 C595.412066,153.089346 595.405756,150.860722 594.037217,149.492183 L554.254565,109.709531 C552.881582,108.336548 550.652965,108.339119 549.28672,109.705364 L509.570753,149.42133 C508.200071,150.792012 508.206381,153.020637 509.574921,154.389176 L549.357572,194.171827 Z M447.416393,194.171827 C448.789376,195.544811 451.017993,195.54224 452.384238,194.175994 L492.100204,154.460028 C493.470886,153.089346 493.464577,150.860722 492.096037,149.492183 L452.313386,109.709531 C450.940402,108.336548 448.711786,108.339119 447.34554,109.705364 L407.629574,149.42133 C406.258892,150.792012 406.265202,153.020637 407.633741,154.389176 L447.416393,194.171827 L447.416393,194.171827 Z M498.386982,143.286677 C499.759966,144.65966 501.988583,144.657089 503.354828,143.290844 L543.070794,103.574878 C544.441476,102.204196 544.435166,99.9755713 543.066627,98.607032 L503.283975,58.8243806 C501.910992,57.4513972 499.682375,57.4539682 498.31613,58.8202134 L458.600164,98.5361796 C457.229482,99.9068616 457.235792,102.135486 458.604331,103.504025 L498.386982,143.286677 L498.386982,143.286677 Z" id="Logo-Copy"></path>
                </g>
            </g>
        </g>
    </g>
</svg>