<?xml version="1.0" encoding="UTF-8" standalone="no"?>
<svg width="418px" height="417px" viewBox="0 0 418 417" version="1.1" xmlns="http://www.w3.org/2000/svg" xmlns:xlink="http://www.w3.org/1999/xlink" xmlns:sketch="http://www.bohemiancoding.com/sketch/ns">
    <!-- Generator: Sketch 3.3.3 (12072) - http://www.bohemiancoding.com/sketch -->
    <title>Logo Copy</title>
    <desc>Created with Sketch.</desc>
    <defs>
        <linearGradient x1="0%" y1="0%" x2="101.999998%" y2="100.999999%" id="linearGradient-1">
            <stop stop-color="#FFCF55" offset="0%"></stop>
            <stop stop-color="#4CF2FF" offset="100%"></stop>
        </linearGradient>
    </defs>
    <g id="Website" stroke="none" stroke-width="1" fill="none" fill-rule="evenodd" sketch:type="MSPage">
        <g id="Docs" sketch:type="MSArtboardGroup" transform="translate(-812.000000, -105.000000)" stroke="url(#linearGradient-1)">
            <g id="Intro" sketch:type="MSLayerGroup" transform="translate(-2.000000, -202.000000)">
                <path d="M1022.58186,723.464461 C1137.77845,723.464461 1231.16373,630.235716 1231.16373,515.232231 C1231.16373,400.228745 1137.77845,307 1022.58186,307 C907.385281,307 814,400.228745 814,515.232231 C814,630.235716 907.385281,723.464461 1022.58186,723.464461 Z M1022.58186,701.064436 C1125.38648,701.064436 1208.72609,617.864523 1208.72609,515.232231 C1208.72609,412.599938 1125.38648,329.400026 1022.58186,329.400026 C919.777246,329.400026 836.437637,412.599938 836.437637,515.232231 C836.437637,617.864523 919.777246,701.064436 1022.58186,701.064436 Z M1097.64244,607.3714 C1099.76636,609.495318 1103.21388,609.491341 1105.32738,607.377847 L1166.76544,545.939787 C1168.8858,543.819429 1168.87603,540.37189 1166.75899,538.254847 L1105.21777,476.71363 C1103.09386,474.589712 1099.64633,474.593689 1097.53283,476.707183 L1036.09477,538.145243 C1033.97442,540.265601 1033.98418,543.71314 1036.10122,545.830183 L1097.64244,607.3714 Z M939.945953,607.3714 C942.069871,609.495318 945.517399,609.491341 947.630893,607.377847 L1009.06895,545.939787 C1011.18931,543.819429 1011.17955,540.37189 1009.06251,538.254847 L947.521289,476.71363 C945.397371,474.589712 941.949843,474.593689 939.836349,476.707183 L878.398289,538.145243 C876.277932,540.265601 876.287693,543.71314 878.404735,545.830183 L939.945953,607.3714 L939.945953,607.3714 Z M1018.7942,528.655326 C1020.91811,530.779244 1024.36564,530.775267 1026.47914,528.661772 L1087.9172,467.223712 C1090.03755,465.103355 1090.02779,461.655816 1087.91075,459.538773 L1026.36953,397.997555 C1024.24561,395.873638 1020.79809,395.877615 1018.68459,397.991109 L957.246532,459.429169 C955.126175,461.549526 955.135936,464.997066 957.252978,467.114108 L1018.7942,528.655326 L1018.7942,528.655326 Z" id="Logo-Copy" sketch:type="MSShapeGroup"></path>
            </g>
        </g>
    </g>
</svg>