<?xml version="1.0" encoding="UTF-8" standalone="no"?>
<svg width="122px" height="35px" viewBox="0 0 122 35" version="1.1" xmlns="http://www.w3.org/2000/svg" xmlns:xlink="http://www.w3.org/1999/xlink" xmlns:sketch="http://www.bohemiancoding.com/sketch/ns">
    <!-- Generator: Sketch 3.4.2 (15855) - http://www.bohemiancoding.com/sketch -->
    <title>Logo</title>
    <desc>Created with Sketch.</desc>
    <defs>
        <linearGradient x1="0%" y1="0%" x2="101.999998%" y2="100.999999%" id="linearGradient-1">
            <stop stop-color="#FFCF55" offset="0%"></stop>
            <stop stop-color="#4CF2FF" offset="100%"></stop>
        </linearGradient>
    </defs>
    <g id="Website" stroke="none" stroke-width="1" fill="none" fill-rule="evenodd" sketch:type="MSPage">
        <g id="Docs-Copy-7" sketch:type="MSArtboardGroup" transform="translate(-17.000000, -9.000000)">
            <g id="Intro" sketch:type="MSLayerGroup" transform="translate(-3.000000, -2.000000)">
                <g id="Navbar" sketch:type="MSShapeGroup">
                    <g id="Logo" transform="translate(20.000000, 11.000000)">
                        <path d="M17.5,35 C27.1649831,35 35,27.1649831 35,17.5 C35,7.83501688 27.1649831,0 17.5,0 C7.83501688,0 0,7.83501688 0,17.5 C0,27.1649831 7.83501688,35 17.5,35 Z M17.5,31.8248395 C25.4113904,31.8248395 31.8248395,25.4113904 31.8248395,17.5 C31.8248395,9.58860957 25.4113904,3.17516045 17.5,3.17516045 C9.58860957,3.17516045 3.17516045,9.58860957 3.17516045,17.5 C3.17516045,25.4113904 9.58860957,31.8248395 17.5,31.8248395 Z M24.1233358,24.6513448 C24.2879986,24.8160076 24.5555029,24.8154746 24.7196327,24.6513448 L29.490794,19.8801835 C29.6554569,19.7155206 29.6549239,19.4480164 29.490794,19.2838865 L24.7196327,14.5127252 C24.5549699,14.3480624 24.2874656,14.3485953 24.1233358,14.5127252 L19.3521745,19.2838865 C19.1875116,19.4485494 19.1880446,19.7160536 19.3521745,19.8801835 L24.1233358,24.6513448 Z M10.2803673,24.6513448 C10.4450301,24.8160076 10.7125344,24.8154746 10.8766642,24.6513448 L15.6478255,19.8801835 C15.8124884,19.7155206 15.8119554,19.4480164 15.6478255,19.2838865 L10.8766642,14.5127252 C10.7120014,14.3480624 10.4444971,14.3485953 10.2803673,14.5127252 L5.50920598,19.2838865 C5.34454312,19.4485494 5.3450761,19.7160536 5.50920598,19.8801835 L10.2803673,24.6513448 L10.2803673,24.6513448 Z M17.2018515,17.7298605 C17.3665144,17.8945234 17.6340186,17.8939904 17.7981485,17.7298605 L22.5693098,12.9586992 C22.7339726,12.7940364 22.7334396,12.5265321 22.5693098,12.3624023 L17.7981485,7.59124097 C17.6334856,7.42657811 17.3659814,7.4271111 17.2018515,7.59124097 L12.4306902,12.3624023 C12.2660274,12.5270651 12.2665604,12.7945694 12.4306902,12.9586992 L17.2018515,17.7298605 L17.2018515,17.7298605 Z" id="Logo-Copy" fill="url(#linearGradient-1)"></path>
                        <path d="M46.584,25.16 L46.584,9.296 C46.584,8.7359972 47.0079958,8.456 47.856,8.456 C48.3040022,8.456 48.6639986,8.555999 48.936,8.756 C49.2080014,8.956001 49.4879986,9.3359972 49.776,9.896 L55.104,20.288 L55.104,9.272 C55.104,8.99999864 55.2279988,8.79600068 55.476,8.66 C55.7240012,8.52399932 56.0239982,8.456 56.376,8.456 C56.7280018,8.456 57.0279988,8.52399932 57.276,8.66 C57.5240012,8.79600068 57.648,8.99999864 57.648,9.272 L57.648,25.16 C57.648,25.4160013 57.5240012,25.6199992 57.276,25.772 C57.0279988,25.9240008 56.7280018,26 56.376,26 C55.7039966,26 55.2000017,25.6880031 54.864,25.064 L49.128,14.144 L49.128,25.16 C49.128,25.4160013 49.0040012,25.6199992 48.756,25.772 C48.5079988,25.9240008 48.2080018,26 47.856,26 C47.5199983,26 47.2240013,25.9240008 46.968,25.772 C46.7119987,25.6199992 46.584,25.4160013 46.584,25.16 L46.584,25.16 Z M60,21.416 L60,19.136 C60,17.8719937 60.4879951,16.7800046 61.464,15.86 C62.4400049,14.9399954 63.6159931,14.48 64.992,14.48 C66.3040066,14.48 67.4279953,14.8999958 68.364,15.74 C69.3000047,16.5800042 69.768,17.6399936 69.768,18.92 C69.768,19.4000024 69.7120006,19.7879985 69.6,20.084 C69.4879994,20.3800015 69.3120012,20.5879994 69.072,20.708 C68.8319988,20.8280006 68.608001,20.9039998 68.4,20.936 C68.191999,20.9680002 67.9200017,20.984 67.584,20.984 L62.52,20.984 L62.52,21.536 C62.52,22.336004 62.8079971,22.9719976 63.384,23.444 C63.9600029,23.9160024 64.7119954,24.152 65.64,24.152 C66.2960033,24.152 66.9159971,24.0000015 67.5,23.696 C68.0840029,23.3919985 68.4399994,23.24 68.568,23.24 C68.8400014,23.24 69.071999,23.3679987 69.264,23.624 C69.456001,23.8800013 69.552,24.1279988 69.552,24.368 C69.552,24.768002 69.1680038,25.171998 68.4,25.58 C67.6319962,25.988002 66.6880056,26.192 65.568,26.192 C63.9359918,26.192 62.6000052,25.7520044 61.56,24.872 C60.5199948,23.9919956 60,22.8400071 60,21.416 L60,21.416 Z M62.52,19.424 L66.504,19.424 C66.8560018,19.424 67.0919994,19.3760005 67.212,19.28 C67.3320006,19.1839995 67.392,18.9920014 67.392,18.704 C67.392,18.0639968 67.1600023,17.5200022 66.696,17.072 C66.2319977,16.6239978 65.6560034,16.4 64.968,16.4 C64.2959966,16.4 63.7200024,16.6119979 63.24,17.036 C62.7599976,17.4600021 62.52,17.9999967 62.52,18.656 L62.52,19.424 Z M71.712,21.464 L71.712,15.464 C71.712,15.2399989 71.8399987,15.0440008 72.096,14.876 C72.3520013,14.7079992 72.6479983,14.624 72.984,14.624 C73.3200017,14.624 73.6119988,14.7079992 73.86,14.876 C74.1080012,15.0440008 74.232,15.2399989 74.232,15.464 L74.232,21.464 C74.232,22.1040032 74.4759976,22.6799974 74.964,23.192 C75.4520024,23.7040026 76.0239967,23.96 76.68,23.96 C77.3520034,23.96 77.9279976,23.7080025 78.408,23.204 C78.8880024,22.6999975 79.128,22.1200033 79.128,21.464 L79.128,15.44 C79.128,15.2159989 79.2519988,15.0240008 79.5,14.864 C79.7480012,14.7039992 80.0479982,14.624 80.4,14.624 C80.7520018,14.624 81.0439988,14.7039992 81.276,14.864 C81.5080012,15.0240008 81.624,15.2159989 81.624,15.44 L81.624,21.464 C81.624,22.7280063 81.1360049,23.8319953 80.16,24.776 C79.1839951,25.7200047 78.0240067,26.192 76.68,26.192 C75.3359933,26.192 74.1720049,25.7200047 73.188,24.776 C72.2039951,23.8319953 71.712,22.7280063 71.712,21.464 L71.712,21.464 Z M84.144,22.256 L84.144,10.232 C84.144,10.0079989 84.2719987,9.8160008 84.528,9.656 C84.7840013,9.4959992 85.0719984,9.416 85.392,9.416 C85.7120016,9.416 86.0039987,9.4959992 86.268,9.656 C86.5320013,9.8160008 86.664,10.0079989 86.664,10.232 L86.664,14.624 L89.592,14.624 C89.800001,14.624 89.9679994,14.7159991 90.096,14.9 C90.2240006,15.0840009 90.288,15.3039987 90.288,15.56 C90.288,15.8160013 90.2240006,16.0359991 90.096,16.22 C89.9679994,16.4040009 89.800001,16.496 89.592,16.496 L86.664,16.496 L86.664,22.256 C86.664,22.8320029 86.7879988,23.2399988 87.036,23.48 C87.2840012,23.7200012 87.7199969,23.84 88.344,23.84 L89.184,23.84 C89.5200017,23.84 89.783999,23.943999 89.976,24.152 C90.168001,24.360001 90.264,24.6159985 90.264,24.92 C90.264,25.2240015 90.168001,25.479999 89.976,25.688 C89.783999,25.896001 89.5200017,26 89.184,26 L88.344,26 C85.543986,26 84.144,24.7520125 84.144,22.256 L84.144,22.256 Z M92.064,25.16 L92.064,15.44 C92.064,15.1999988 92.1799988,15.0040008 92.412,14.852 C92.6440012,14.6999992 92.9359982,14.624 93.288,14.624 C93.6080016,14.624 93.8799989,14.6999992 94.104,14.852 C94.3280011,15.0040008 94.44,15.1999988 94.44,15.44 L94.44,16.496 C94.7120014,15.9359972 95.1239972,15.460002 95.676,15.068 C96.2280028,14.675998 96.8319967,14.48 97.488,14.48 L98.256,14.48 C98.5120013,14.48 98.735999,14.5879989 98.928,14.804 C99.120001,15.0200011 99.216,15.2799985 99.216,15.584 C99.216,15.8880015 99.120001,16.1519989 98.928,16.376 C98.735999,16.6000011 98.5120013,16.712 98.256,16.712 L97.488,16.712 C96.7199962,16.712 96.0440029,17.0399967 95.46,17.696 C94.8759971,18.3520033 94.584,19.1999948 94.584,20.24 L94.584,25.16 C94.584,25.368001 94.4560013,25.5599991 94.2,25.736 C93.9439987,25.9120009 93.6400018,26 93.288,26 C92.9359982,26 92.6440012,25.9120009 92.412,25.736 C92.1799988,25.5599991 92.064,25.368001 92.064,25.16 L92.064,25.16 Z M99.96,21.416 L99.96,19.208 C99.96,17.9439937 100.447995,16.8400047 101.424,15.896 C102.400005,14.9519953 103.567993,14.48 104.928,14.48 C106.256007,14.48 107.415995,14.9479953 108.408,15.884 C109.400005,16.8200047 109.896,17.9279936 109.896,19.208 L109.896,21.416 C109.896,22.6640062 109.396005,23.7719952 108.396,24.74 C107.395995,25.7080048 106.240007,26.192 104.928,26.192 C103.599993,26.192 102.440005,25.7120048 101.448,24.752 C100.455995,23.7919952 99.96,22.6800063 99.96,21.416 L99.96,21.416 Z M102.48,21.416 C102.48,22.0720033 102.719998,22.6599974 103.2,23.18 C103.680002,23.7000026 104.255997,23.96 104.928,23.96 C105.584003,23.96 106.155998,23.7000026 106.644,23.18 C107.132002,22.6599974 107.376,22.0720033 107.376,21.416 L107.376,19.208 C107.376,18.5679968 107.132002,17.9920026 106.644,17.48 C106.155998,16.9679974 105.584003,16.712 104.928,16.712 C104.255997,16.712 103.680002,16.9679974 103.2,17.48 C102.719998,17.9920026 102.48,18.5679968 102.48,19.208 L102.48,21.416 Z M112.104,25.16 L112.104,15.44 C112.104,15.1999988 112.219999,15.0040008 112.452,14.852 C112.684001,14.6999992 112.983998,14.624 113.352,14.624 C113.672002,14.624 113.939999,14.6999992 114.156,14.852 C114.372001,15.0040008 114.48,15.1999988 114.48,15.44 L114.48,16.304 C114.736001,15.7919974 115.147997,15.3600018 115.716,15.008 C116.284003,14.6559982 116.943996,14.48 117.696,14.48 C118.832006,14.48 119.811996,14.9439954 120.636,15.872 C121.460004,16.8000046 121.872,17.9119935 121.872,19.208 L121.872,25.16 C121.872,25.4160013 121.748001,25.6199992 121.5,25.772 C121.251999,25.9240008 120.952002,26 120.6,26 C120.279998,26 119.992001,25.9240008 119.736,25.772 C119.479999,25.6199992 119.352,25.4160013 119.352,25.16 L119.352,19.208 C119.352,18.5679968 119.112002,17.9920026 118.632,17.48 C118.151998,16.9679974 117.584003,16.712 116.928,16.712 C116.319997,16.712 115.784002,16.9399977 115.32,17.396 C114.855998,17.8520023 114.624,18.4559962 114.624,19.208 L114.624,25.16 C114.624,25.368001 114.496001,25.5599991 114.24,25.736 C113.983999,25.9120009 113.688002,26 113.352,26 C112.999998,26 112.704001,25.9120009 112.464,25.736 C112.223999,25.5599991 112.104,25.368001 112.104,25.16 L112.104,25.16 Z" id="Neutron" fill="#ACDFA4"></path>
                    </g>
                </g>
            </g>
        </g>
    </g>
</svg>