<?xml version="1.0" encoding="UTF-8" standalone="no"?>
<svg width="32px" height="32px" viewBox="0 0 32 32" version="1.1" xmlns="http://www.w3.org/2000/svg" xmlns:xlink="http://www.w3.org/1999/xlink" xmlns:sketch="http://www.bohemiancoding.com/sketch/ns">
    <!-- Generator: Sketch 3.3.3 (12072) - http://www.bohemiancoding.com/sketch -->
    <title>Logo Copy</title>
    <desc>Created with Sketch.</desc>
    <defs></defs>
    <g id="Page-1" stroke="none" stroke-width="1" fill="none" fill-rule="evenodd" sketch:type="MSPage">
        <g id="32" sketch:type="MSArtboardGroup" fill="#000000">
            <path d="M16,32 C24.836556,32 32,24.836556 32,16 C32,7.163444 24.836556,0 16,0 C7.163444,0 0,7.163444 0,16 C0,24.836556 7.163444,32 16,32 Z M16,29 C23.1797017,29 29,23.1797017 29,16 C29,8.82029825 23.1797017,3 16,3 C8.82029825,3 3,8.82029825 3,16 C3,23.1797017 8.82029825,29 16,29 Z M22.0157312,23.3264598 C22.1786537,23.4893823 22.4433307,23.4888549 22.6057258,23.3264598 L27.3264598,18.6057258 C27.4893823,18.4428033 27.4888549,18.1781264 27.3264598,18.0157312 L22.6057258,13.2949973 C22.4428033,13.1320748 22.1781264,13.1326021 22.0157312,13.2949973 L17.2949973,18.0157312 C17.1320748,18.1786537 17.1326021,18.4433307 17.2949973,18.6057258 L22.0157312,23.3264598 Z M10.0157312,23.3264598 C10.1786537,23.4893823 10.4433307,23.4888549 10.6057258,23.3264598 L15.3264598,18.6057258 C15.4893823,18.4428033 15.4888549,18.1781264 15.3264598,18.0157312 L10.6057258,13.2949973 C10.4428033,13.1320748 10.1781264,13.1326021 10.0157312,13.2949973 L5.29499729,18.0157312 C5.13207479,18.1786537 5.13260214,18.4433307 5.29499729,18.6057258 L10.0157312,23.3264598 L10.0157312,23.3264598 Z M16.0157312,17.3264598 C16.1786537,17.4893823 16.4433307,17.4888549 16.6057258,17.3264598 L21.3264598,12.6057258 C21.4893823,12.4428033 21.4888549,12.1781264 21.3264598,12.0157312 L16.6057258,7.29499729 C16.4428033,7.13207479 16.1781264,7.13260214 16.0157312,7.29499729 L11.2949973,12.0157312 C11.1320748,12.1786537 11.1326021,12.4433307 11.2949973,12.6057258 L16.0157312,17.3264598 L16.0157312,17.3264598 Z" id="Logo-Copy" sketch:type="MSShapeGroup"></path>
        </g>
    </g>
</svg>